<svg height="80" viewBox="0 0 81 80" width="81" xmlns="http://www.w3.org/2000/svg" xmlns:xlink="http://www.w3.org/1999/xlink"><mask id="a" fill="#fff"><path d="m0 79h79v-79h-79z" fill="none"/></mask><g fill="none" fill-rule="evenodd" stroke="#5b3af0" stroke-width="3" transform="translate(1 1)"><path d="m27.0794032 70h-18.6277903c-4.11453225 0-7.4516129-3.3107679-7.4516129-7.3928571v-61.6071429h62.0967742v61.6071429c0 4.0820892 3.3358387 7.3928571 7.4516129 7.3928571 4.1145323 0 7.4516129-3.3107679 7.4516129-7.3928571v-50.5178572c0-2.0416607-1.6679194-3.69642856-3.7258065-3.69642856-2.057887 0-3.7258064 1.65476786-3.7258064 3.69642856v50.5178572h-7.4516129"/><path d="m70 70h-27"/><path d="m74 9h-11"/><path d="m31 42v6"/><path d="m36 44v6"/><path d="m41 47v6"/><path d="m28 65h4"/><path d="m27.1717087 79v-13.5384615c-1.5665138 0-2.9949535-.8775385-3.6777929-2.2596923l-6.1179394-12.3704616c-.8158927-1.4141538-.25732-3.2098461 1.2250941-3.9372308 1.3091939-.6412307 2.9008121-.2252307 3.7091734.9735385l3.1493455 4.6707692h.4568999v-19.076923c0-1.3587693 1.1246766-2.4615385 2.5104388-2.4615385 1.3857623 0 2.5104389 1.1027692 2.5104389 2.4615385v8h2.5104388c1.3857622 0 2.5104388 1.1027692 2.5104388 2.4615384h2.5104389c1.3857622 0 2.5104388 1.1027693 2.5104388 2.4615385h2.5104389c1.3857622 0 2.5104388 1.1027692 2.5104388 2.4615384v11.6923077l-2.5104388 4.923077v13.5384615"/><path d="m9 26h47v-17h-47z" mask="url(#a)"/><path d="m57 33h-26" mask="url(#a)"/><path d="m26 33h-19" mask="url(#a)"/><path d="m57 38h-26" mask="url(#a)"/><path d="m26 38h-19" mask="url(#a)"/><path d="m57 43h-21" mask="url(#a)"/><path d="m26 43h-19" mask="url(#a)"/><path d="m57 48h-11" mask="url(#a)"/><path d="m17 48h-10" mask="url(#a)"/><path d="m57 53h-11" mask="url(#a)"/><path d="m18 53h-11" mask="url(#a)"/><path d="m57 58h-11" mask="url(#a)"/><path d="m21 58h-14" mask="url(#a)"/><path d="m14 18v-4h4" mask="url(#a)"/><path d="m51 17v4h-4" mask="url(#a)"/><path d="m23 17h17" stroke-dasharray="3 3"/></g></svg>