<?xml version="1.0" encoding="UTF-8"?>
<svg width="38px" height="38px" viewBox="0 0 38 38" version="1.1" xmlns="http://www.w3.org/2000/svg" xmlns:xlink="http://www.w3.org/1999/xlink">
    <!-- Generator: Sketch 51.2 (57519) - http://www.bohemiancoding.com/sketch -->
    <title>11 dream, catcher, indian, wild, west, cowboy</title>
    <desc>Created with Sketch.</desc>
    <defs></defs>
    <g id="White-/-Landing-page" stroke="none" stroke-width="1" fill="none" fill-rule="evenodd" opacity="0.778515625">
        <g id="EIP1337-Copy" transform="translate(-84.000000, -133.000000)" fill="#FFFFFF" fill-rule="nonzero">
            <g id="bg" transform="translate(1.000000, -39.000000)">
                <g id="11-dream,-catcher,-indian,-wild,-west,-cowboy" transform="translate(83.000000, 172.000000)">
                    <path d="M19,38 C8.523,38 0,29.477 0,19 C0,8.523 8.523,0 19,0 C29.477,0 38,8.523 38,19 C38,29.477 29.477,38 19,38 Z M19,2 C9.626,2 2,9.626 2,19 C2,28.374 9.626,36 19,36 C28.374,36 36,28.374 36,19 C36,9.626 28.374,2 19,2 Z" id="Shape"></path>
                    <path d="M19,38 C18.714,38 18.442,37.878 18.252,37.664 C13.575,32.399 11,25.771 11,19 C11,12.229 13.575,5.601 18.252,0.336 C18.633,-0.092 19.367,-0.092 19.748,0.336 C24.425,5.601 27,12.229 27,19 C27,25.771 24.425,32.399 19.748,37.664 C19.558,37.878 19.286,38 19,38 Z M19,2.54 C15.07,7.331 13,12.998 13,19 C13,25.002 15.07,30.669 19,35.46 C22.93,30.669 25,25.002 25,19 C25,12.998 22.93,7.331 19,2.54 Z" id="Shape"></path>
                    <path d="M28.804,29.595 C23.928,29.595 19.155,28.327 15,25.929 C9.136,22.543 4.684,16.998 2.463,10.316 C2.373,10.045 2.403,9.748 2.546,9.501 C2.689,9.254 2.931,9.079 3.211,9.022 C10.073,7.612 17.154,8.699 23,12.073 C28.864,15.459 33.316,21.004 35.537,27.686 C35.627,27.957 35.597,28.254 35.454,28.501 C35.311,28.748 35.069,28.923 34.789,28.98 C32.804,29.388 30.79,29.595 28.804,29.595 Z M4.746,10.771 C6.93,16.568 10.803,21.195 16,24.196 C19.905,26.451 24.213,27.594 28.804,27.594 C30.279,27.594 31.771,27.472 33.254,27.229 C31.07,21.432 27.197,16.805 22,13.804 C18.095,11.549 13.786,10.406 9.196,10.406 C7.722,10.405 6.229,10.527 4.746,10.771 Z" id="Shape"></path>
                    <path d="M9.197,29.595 C9.197,29.595 9.197,29.595 9.197,29.595 C7.21,29.595 5.196,29.388 3.211,28.98 C2.931,28.922 2.689,28.748 2.546,28.501 C2.403,28.254 2.373,27.957 2.463,27.686 C4.684,21.002 9.136,15.457 15,12.071 C20.845,8.697 27.927,7.61 34.789,9.02 C35.069,9.078 35.31,9.252 35.454,9.499 C35.597,9.746 35.627,10.043 35.537,10.314 C33.316,16.998 28.864,22.543 23,25.929 C18.846,28.327 14.072,29.595 9.197,29.595 Z M4.746,27.229 C6.229,27.472 7.722,27.594 9.196,27.594 C13.786,27.594 18.093,26.45 22,24.196 C27.198,21.195 31.07,16.568 33.254,10.77 C31.771,10.528 30.278,10.405 28.804,10.405 C24.213,10.405 19.906,11.549 16,13.803 C10.803,16.805 6.93,21.432 4.746,27.229 Z" id="Shape"></path>
                    <path d="M19,23.001 C16.794,23.001 15,21.207 15,19.001 C15,16.795 16.794,15.001 19,15.001 C21.206,15.001 23,16.795 23,19.001 C23,21.207 21.206,23.001 19,23.001 Z M19,17.001 C17.897,17.001 17,17.898 17,19.001 C17,20.104 17.897,21.001 19,21.001 C20.103,21.001 21,20.104 21,19.001 C21,17.898 20.103,17.001 19,17.001 Z" id="Shape"></path>
                </g>
            </g>
        </g>
    </g>
</svg>